<svg xmlns="http://www.w3.org/2000/svg" height="400" viewBox="-4.8 -4.8 409.6 409.6" width="400"><linearGradient gradientUnits="userSpaceOnUse" id="gradient-1568046285" x1="73.17937250821939" x2="426.5206396988118" y1="426.5206396988118" y2="73.17937250821944"><stop offset="0%" stop-color="hsl(210,25.86%,39.42%)" /><stop offset="100%" stop-color="hsl(210,25.49%,4.67%)" /></linearGradient><linearGradient gradientUnits="userSpaceOnUse" id="gradient-19629267" x1="426.5206396988118" x2="73.17937250821939" y1="426.5206396988118" y2="73.17937250821944"><stop offset="0%" stop-color="hsl(0,0%,20%)" /><stop offset="100%" stop-color="hsl(0,0%,20%)" /></linearGradient><radialGradient gradientUnits="userSpaceOnUse" id="gradient-3379911865" r="249.85000610351562"><stop offset="0%" stop-color="hsla(240,96.15%,20.39%,0)" /><stop offset="100%" stop-color="hsla(240,96.15%,20.39%,0)" /></radialGradient><linearGradient gradientUnits="userSpaceOnUse" id="gradient-1968262098" x1="73.17937250821944" x2="426.5206396988118" y1="73.17937250821942" y2="426.5206396988118"><stop offset="0%" stop-color="hsl(0,0%,73.1%)" /><stop offset="17%" stop-color="hsl(0,0%,69.65%)" /><stop offset="50%" stop-color="hsl(0,0%,62.43%)" /><stop offset="5.01%" stop-color="hsl(0,0%,61.18%)" /><stop offset="59%" stop-color="hsl(0,0%,67.14%)" /><stop offset="71%" stop-color="hsl(0,0%,75.29%)" /><stop offset="84%" stop-color="hsl(0,0%,60.86%)" /><stop offset="100%" stop-color="hsl(0,0%,43.61%)" /></linearGradient><linearGradient gradientUnits="userSpaceOnUse" id="gradient-3519753414" x1="12" x2="12" y1="0" y2="24"><stop offset="0%" stop-color="hsl(204,25%,15.69%)" /><stop offset="100%" stop-color="hsl(204,25%,15.69%)" /></linearGradient><linearGradient gradientUnits="userSpaceOnUse" id="gradient-50460430" x1="24" x2="0" y1="12" y2="12.000000000000002"><stop offset="20%" stop-color="hsl(0,0%,76%)" /><stop offset="50%" stop-color="hsl(0,0%,90.82%)" /><stop offset="80%" stop-color="hsl(0,0%,76%)" /></linearGradient><metadata>{"content":{"iconName":"hexagon-slice-6","shapeName":"shield"},"style":{"iconFillStyle":{"gradientDef":"FF0000+0,FF0000+100","baseColor":"hsl(210,11.11%,9%)","options":{"angle":180,"type":"linear"},"strokeWidth":1,"gradientZoom":0.8},"iconScale":1.65,"iconStrokeStyle":{"gradientDef":"https://colorzilla.com/gradient-editor/#1e5799+20,2989d8+50,1e5799+80","baseColor":"hsl(0,0%,70%)","options":{"angle":270,"type":"linear"},"strokeWidth":0.2,"gradientZoom":1},"shapeInnerFillStyle":{"baseColor":"rgb(26,26,51)","gradientDef":"FF0000+0,FF0000+100&amp;0+0,0+100","gradientZoom":1,"options":{"angle":0,"type":"radial"},"strokeWidth":1},"shapeInnerStrokeStyle":{"gradientDef":"https://colorzilla.com/gradient-editor/#cedbe9+0,aac5de+17,6199c7+50,3a84c3+5.01,419ad6+59,4bb8f0+71,3a8bc2+84,26558b+100","baseColor":"hsl(0,0%,40%)","options":{"angle":135,"type":"linear"},"strokeWidth":0.1,"gradientZoom":1},"shapeOuterFillStyle":{"gradientDef":"https://colorzilla.com/gradient-editor/#7d7e7d+0,0e0e0e+100","baseColor":"hsl(210,53.85%,32.5%)","options":{"angle":45,"type":"linear"},"strokeWidth":1,"gradientZoom":1},"shapeOuterStrokeStyle":{"gradientDef":"FF0000+0,FF0000+100","baseColor":"hsl(0,0%,10%)","options":{"angle":315,"type":"linear"},"strokeWidth":0.6,"gradientZoom":1}}}</metadata><svg height="400" style="overflow: visible;" viewBox="0 0 499.7 499.7" width="400" x="0" y="0"><path d="M463.6 410.5L252 499.8 36 410.5V-.2h427.6v410.7z" fill="#9fa0a4" style="fill: url(&quot;#gradient-1568046285&quot;); stroke-width: 11.9928px; stroke: url(&quot;#gradient-19629267&quot;); stroke-linecap: round; stroke-linejoin: round;" /><path d="M93.6 372V57.4H406v314.9l-154.2 65.1z" fill="none" stroke="#fff" stroke-miterlimit="10" stroke-width="18" style="fill: url(&quot;#gradient-3379911865&quot;); stroke-width: 1.9988px; stroke: url(&quot;#gradient-1968262098&quot;); stroke-linecap: round; stroke-linejoin: miter;" /></svg><svg height="210.375" id="mdi-hexagon-slice-6" style="overflow: visible;" version="1.1" viewBox="0 0 24 24" width="210.375" x="94.8125" y="94.8125"><path d="M 12 5.32 L 18 8.69 V 15.31 L 12 18.68 L 6 15.31 V 8.69 L 12 5.32 Z M 21 16.5 C 21 16.88 20.79 17.21 20.47 17.38 L 12.57 21.82 C 12.41 21.94 12.21 22 12 22 C 11.79 22 11.59 21.94 11.43 21.82 L 3.5300000000000002 17.38 C 3.21 17.21 3 16.88 3 16.5 V 7.5 C 3 7.12 3.21 6.79 3.5300000000000002 6.62 L 11.43 2.18 C 11.59 2.06 11.79 2 12 2 C 12.21 2 12.41 2.06 12.57 2.18 L 20.47 6.62 C 20.79 6.79 21 7.12 21 7.5 V 16.5 Z M 12 4.15 L 5 8.09 V 15.91 L 12 19.85 L 19 15.91 V 8.09 L 12 4.15 Z" style="fill: url(&quot;#gradient-3519753414&quot;); stroke-width: 0.192px; stroke: url(&quot;#gradient-50460430&quot;); stroke-linecap: round; stroke-linejoin: round;" /><path d="M 12 5.32 L 18 8.69 V 15.31 L 12 18.68 L 6 15.31 V 8.69 L 12 5.32 Z M 21 16.5 C 21 16.88 20.79 17.21 20.47 17.38 L 12.57 21.82 C 12.41 21.94 12.21 22 12 22 C 11.79 22 11.59 21.94 11.43 21.82 L 3.5300000000000002 17.38 C 3.21 17.21 3 16.88 3 16.5 V 7.5 C 3 7.12 3.21 6.79 3.5300000000000002 6.62 L 11.43 2.18 C 11.59 2.06 11.79 2 12 2 C 12.21 2 12.41 2.06 12.57 2.18 L 20.47 6.62 C 20.79 6.79 21 7.12 21 7.5 V 16.5 Z M 12 4.15 L 5 8.09 V 15.91 L 12 19.85 L 19 15.91 V 8.09 L 12 4.15 Z" style="fill: url(&quot;#gradient-3519753414&quot;);" /></svg></svg>